<?xml version="1.0" encoding="UTF-8" standalone="no"?>
<!-- Created with Inkscape (http://www.inkscape.org/) -->

<svg
   xmlns:dc="http://purl.org/dc/elements/1.1/"
   xmlns:cc="http://creativecommons.org/ns#"
   xmlns:rdf="http://www.w3.org/1999/02/22-rdf-syntax-ns#"
   xmlns:svg="http://www.w3.org/2000/svg"
   xmlns="http://www.w3.org/2000/svg"
   xmlns:sodipodi="http://sodipodi.sourceforge.net/DTD/sodipodi-0.dtd"
   xmlns:inkscape="http://www.inkscape.org/namespaces/inkscape"
   id="svg2"
   version="1.1"
   inkscape:version="0.91 r13725"
   xml:space="preserve"
   width="2104.7236"
   height="321.55499"
   viewBox="0 0 2104.7236 321.55499"
   sodipodi:docname="logo-BK-black.svg"
   inkscape:export-filename="/Users/loraine/Dropbox/PROJECTS/2017-03-ROTOR/deconstruction-conference/beta/logo-BK-black.png"
   inkscape:export-xdpi="34.208767"
   inkscape:export-ydpi="34.208767"><metadata
     id="metadata8"><rdf:RDF><cc:Work
         rdf:about=""><dc:format>image/svg+xml</dc:format><dc:type
           rdf:resource="http://purl.org/dc/dcmitype/StillImage" /><dc:title /></cc:Work></rdf:RDF></metadata><defs
     id="defs6"><clipPath
       clipPathUnits="userSpaceOnUse"
       id="clipPath222"><path
         d="m 0,0 1683.78,0 0,2381.102 L 0,2381.102 0,0 Z"
         id="path224"
         inkscape:connector-curvature="0" /></clipPath><clipPath
       clipPathUnits="userSpaceOnUse"
       id="clipPath250"><path
         d="m 0,0 1683.78,0 0,2381.102 L 0,2381.102 0,0 Z"
         id="path252"
         inkscape:connector-curvature="0" /></clipPath></defs><sodipodi:namedview
     pagecolor="#ffffff"
     bordercolor="#666666"
     borderopacity="1"
     objecttolerance="10"
     gridtolerance="10"
     guidetolerance="10"
     inkscape:pageopacity="0"
     inkscape:pageshadow="2"
     inkscape:window-width="1262"
     inkscape:window-height="724"
     id="namedview4"
     showgrid="false"
     fit-margin-top="0"
     fit-margin-left="0"
     fit-margin-right="0"
     fit-margin-bottom="0"
     inkscape:zoom="0.63432868"
     inkscape:cx="1486.5894"
     inkscape:cy="-24.713744"
     inkscape:window-x="0"
     inkscape:window-y="0"
     inkscape:window-maximized="0"
     inkscape:current-layer="g10" /><g
     id="g10"
     inkscape:groupmode="layer"
     inkscape:label="logo-BK"
     transform="matrix(1.25,0,0,-1.25,0,2253.5437)"><path
       inkscape:connector-curvature="0"
       id="path20"
       style="fill:#000000;fill-opacity:1;fill-rule:nonzero;stroke:none"
       d="m 595.0224,1611.9036 0.596,0 0,0.596 -0.596,-0.596 z" /><path
       inkscape:connector-curvature="0"
       id="path24"
       style="fill:#000000;fill-opacity:1;fill-rule:nonzero;stroke:none"
       d="m 338.3015,1667.3519 -0.421,-0.421 0,-18.333 18.751,18.752 -18.33,0 z" /><path
       inkscape:connector-curvature="0"
       id="path28"
       style="fill:#000000;fill-opacity:1;fill-rule:nonzero;stroke:none"
       d="m 375.0309,1667.3478 -37.15,-37.151 0,-18.265 0.066,0 55.414,55.415 -18.33,10e-4 z" /><path
       inkscape:connector-curvature="0"
       id="path32"
       style="fill:#000000;fill-opacity:1;fill-rule:nonzero;stroke:none"
       d="m 558.681,1667.327 -55.414,-55.413 18.328,-0 55.414,55.413 -18.328,0 z" /><path
       inkscape:connector-curvature="0"
       id="path36"
       style="fill:#000000;fill-opacity:1;fill-rule:nonzero;stroke:none"
       d="m 521.9517,1667.3318 -55.415,-55.414 18.33,-0 55.415,55.414 -18.33,0 z" /><path
       inkscape:connector-curvature="0"
       id="path40"
       style="fill:#000000;fill-opacity:1;fill-rule:nonzero;stroke:none"
       d="m 485.2214,1667.3358 -55.414,-55.414 18.331,-10e-4 55.414,55.413 -18.331,0 z" /><path
       inkscape:connector-curvature="0"
       id="path44"
       style="fill:#000000;fill-opacity:1;fill-rule:nonzero;stroke:none"
       d="m 448.4905,1667.3395 -55.413,-55.413 18.327,-0 55.414,55.413 -18.328,0 z" /><path
       inkscape:connector-curvature="0"
       id="path48"
       style="fill:#000000;fill-opacity:1;fill-rule:nonzero;stroke:none"
       d="m 595.6174,1667.3229 -0.239,0 -55.416,-55.413 18.329,-0 37.326,37.326 0,18.089 z" /><path
       inkscape:connector-curvature="0"
       id="path52"
       style="fill:#000000;fill-opacity:1;fill-rule:nonzero;stroke:none"
       d="m 595.6174,1630.8298 -18.923,-18.924 18.328,-0 0.595,0.596 0,18.33 z" /><path
       inkscape:connector-curvature="0"
       id="path56"
       style="fill:#000000;fill-opacity:1;fill-rule:nonzero;stroke:none"
       d="m 411.7612,1667.3441 -55.414,-55.414 18.328,-0 55.414,55.414 -18.328,0 z" /><path
       inkscape:connector-curvature="0"
       id="path64"
       style="fill:#000000;fill-opacity:1;fill-rule:nonzero;stroke:none"
       d="m 852.3045,1611.9171 0.595,0 0,0.596 -0.595,-0.596 z" /><path
       inkscape:connector-curvature="0"
       id="path68"
       style="fill:#000000;fill-opacity:1;fill-rule:nonzero;stroke:none"
       d="m 595.5833,1667.3654 -0.421,-0.421 0,-18.332 18.751,18.751 -18.33,0 z" /><path
       inkscape:connector-curvature="0"
       id="path72"
       style="fill:#000000;fill-opacity:1;fill-rule:nonzero;stroke:none"
       d="m 632.3126,1667.3612 -37.151,-37.151 0,-18.265 0.067,0 55.414,55.415 -18.33,10e-4 z" /><path
       inkscape:connector-curvature="0"
       id="path76"
       style="fill:#000000;fill-opacity:1;fill-rule:nonzero;stroke:none"
       d="m 815.9628,1667.3406 -55.414,-55.413 18.328,-0 55.414,55.413 -18.328,0 z" /><path
       inkscape:connector-curvature="0"
       id="path80"
       style="fill:#000000;fill-opacity:1;fill-rule:nonzero;stroke:none"
       d="m 779.2334,1667.3452 -55.415,-55.414 18.33,-0 55.415,55.414 -18.33,0 z" /><path
       inkscape:connector-curvature="0"
       id="path84"
       style="fill:#000000;fill-opacity:1;fill-rule:nonzero;stroke:none"
       d="m 742.5031,1667.3494 -55.414,-55.414 18.331,-10e-4 55.414,55.413 -18.331,0 z" /><path
       inkscape:connector-curvature="0"
       id="path88"
       style="fill:#000000;fill-opacity:1;fill-rule:nonzero;stroke:none"
       d="m 705.7723,1667.3529 -55.413,-55.413 18.327,-0 55.414,55.413 -18.328,0 z" /><path
       inkscape:connector-curvature="0"
       id="path92"
       style="fill:#000000;fill-opacity:1;fill-rule:nonzero;stroke:none"
       d="m 852.8992,1667.3364 -0.239,0 -55.416,-55.413 18.33,-0 37.325,37.326 0,18.089 z" /><path
       inkscape:connector-curvature="0"
       id="path96"
       style="fill:#000000;fill-opacity:1;fill-rule:nonzero;stroke:none"
       d="m 852.8992,1630.8433 -18.923,-18.924 18.328,-0 0.595,0.596 0,18.33 z" /><path
       inkscape:connector-curvature="0"
       id="path100"
       style="fill:#000000;fill-opacity:1;fill-rule:nonzero;stroke:none"
       d="m 669.043,1667.3577 -55.414,-55.414 18.328,-0 55.414,55.414 -18.328,0 z" /><path
       inkscape:connector-curvature="0"
       id="path108"
       style="fill:#000000;fill-opacity:1;fill-rule:nonzero;stroke:none"
       d="m 337.707,1611.8595 0.594,0 0,0.598 -0.594,-0.598 z" /><path
       inkscape:connector-curvature="0"
       id="path112"
       style="fill:#000000;fill-opacity:1;fill-rule:nonzero;stroke:none"
       d="m 80.9852,1667.3094 -0.421,-0.421 0,-18.334 18.751,18.753 -18.33,0 z" /><path
       inkscape:connector-curvature="0"
       id="path116"
       style="fill:#000000;fill-opacity:1;fill-rule:nonzero;stroke:none"
       d="m 117.7144,1667.3053 -37.15,-37.151 0,-18.265 0.066,0 55.414,55.414 -18.33,0 z" /><path
       inkscape:connector-curvature="0"
       id="path120"
       style="fill:#000000;fill-opacity:1;fill-rule:nonzero;stroke:none"
       d="m 301.3651,1667.2847 -55.414,-55.414 18.328,-0 55.414,55.414 -18.328,0 z" /><path
       inkscape:connector-curvature="0"
       id="path124"
       style="fill:#000000;fill-opacity:1;fill-rule:nonzero;stroke:none"
       d="m 264.6358,1667.2888 -55.416,-55.414 18.33,-0 55.416,55.414 -18.33,0 z" /><path
       inkscape:connector-curvature="0"
       id="path128"
       style="fill:#000000;fill-opacity:1;fill-rule:nonzero;stroke:none"
       d="m 227.9044,1667.2928 -55.413,-55.414 18.33,-10e-4 55.415,55.413 -18.332,0 z" /><path
       inkscape:connector-curvature="0"
       id="path132"
       style="fill:#000000;fill-opacity:1;fill-rule:nonzero;stroke:none"
       d="m 191.1741,1667.297 -55.413,-55.414 18.327,-0 55.413,55.414 -18.327,0 z" /><path
       inkscape:connector-curvature="0"
       id="path136"
       style="fill:#000000;fill-opacity:1;fill-rule:nonzero;stroke:none"
       d="m 338.3015,1667.2804 -0.239,0 -55.416,-55.413 18.329,-0 37.326,37.325 0,18.09 z" /><path
       inkscape:connector-curvature="0"
       id="path140"
       style="fill:#000000;fill-opacity:1;fill-rule:nonzero;stroke:none"
       d="m 338.3015,1630.7874 -18.923,-18.925 18.328,-0 0.595,0.597 0,18.33 z" /><path
       inkscape:connector-curvature="0"
       id="path144"
       style="fill:#000000;fill-opacity:1;fill-rule:nonzero;stroke:none"
       d="m 154.4447,1667.3011 -55.414,-55.414 18.328,-0 55.414,55.414 -18.328,0 z" /><path
       inkscape:connector-curvature="0"
       id="path148"
       style="fill:#000000;fill-opacity:1;fill-rule:nonzero;stroke:none"
       d="m 1109.9177,1667.3688 0,-0.423 0.423,0.423 -0.423,0 z" /><path
       inkscape:connector-curvature="0"
       id="path152"
       style="fill:#000000;fill-opacity:1;fill-rule:nonzero;stroke:none"
       d="m 1110.3411,1667.368 -0.422,-0.421 0,-18.333 18.752,18.752 -18.33,0 z" /><path
       inkscape:connector-curvature="0"
       id="path156"
       style="fill:#000000;fill-opacity:1;fill-rule:nonzero;stroke:none"
       d="m 1147.0703,1667.3639 -37.151,-37.151 0,-18.265 0.067,0 55.414,55.415 -18.33,10e-4 z" /><path
       inkscape:connector-curvature="0"
       id="path160"
       style="fill:#000000;fill-opacity:1;fill-rule:nonzero;stroke:none"
       d="m 1238.5754,1611.9342 17.844,-0 0,17.847 -17.844,-17.844 z" /><path
       inkscape:connector-curvature="0"
       id="path164"
       style="fill:#000000;fill-opacity:1;fill-rule:nonzero;stroke:none"
       d="m 1201.8464,1611.9377 18.33,-10e-4 36.243,36.243 0,18.331 -54.573,-54.573 z" /><path
       inkscape:connector-curvature="0"
       id="path168"
       style="fill:#000000;fill-opacity:1;fill-rule:nonzero;stroke:none"
       d="m 1220.5289,1667.3556 -55.412,-55.413 18.326,-0 55.414,55.413 -18.328,0 z" /><path
       inkscape:connector-curvature="0"
       id="path172"
       style="fill:#000000;fill-opacity:1;fill-rule:nonzero;stroke:none"
       d="m 1183.7996,1667.3601 -55.414,-55.414 18.328,-0 55.414,55.414 -18.328,0 z" /><path
       inkscape:connector-curvature="0"
       id="path180"
       style="fill:#000000;fill-opacity:1;fill-rule:nonzero;stroke:none"
       d="m 1109.7458,1611.8757 0.595,0 0,0.598 -0.595,-0.598 z" /><path
       inkscape:connector-curvature="0"
       id="path184"
       style="fill:#000000;fill-opacity:1;fill-rule:nonzero;stroke:none"
       d="m 853.0236,1667.3254 -0.421,-0.421 0,-18.334 18.751,18.753 -18.33,0 z" /><path
       inkscape:connector-curvature="0"
       id="path188"
       style="fill:#000000;fill-opacity:1;fill-rule:nonzero;stroke:none"
       d="m 889.7529,1667.3213 -37.151,-37.151 0,-18.265 0.067,0 55.414,55.414 -18.33,0 z" /><path
       inkscape:connector-curvature="0"
       id="path192"
       style="fill:#000000;fill-opacity:1;fill-rule:nonzero;stroke:none"
       d="m 1073.4045,1667.3007 -55.415,-55.414 18.329,-0 55.414,55.414 -18.328,0 z" /><path
       inkscape:connector-curvature="0"
       id="path196"
       style="fill:#000000;fill-opacity:1;fill-rule:nonzero;stroke:none"
       d="m 1036.6753,1667.3048 -55.417,-55.414 18.33,-0 55.417,55.414 -18.33,0 z" /><path
       inkscape:connector-curvature="0"
       id="path200"
       style="fill:#000000;fill-opacity:1;fill-rule:nonzero;stroke:none"
       d="m 999.9429,1667.309 -55.413,-55.414 18.33,-10e-4 55.415,55.413 -18.332,0 z" /><path
       inkscape:connector-curvature="0"
       id="path204"
       style="fill:#000000;fill-opacity:1;fill-rule:nonzero;stroke:none"
       d="m 963.2124,1667.313 -55.413,-55.414 18.327,-0 55.413,55.414 -18.327,0 z" /><path
       inkscape:connector-curvature="0"
       id="path208"
       style="fill:#000000;fill-opacity:1;fill-rule:nonzero;stroke:none"
       d="m 1110.3411,1667.2965 -0.239,0 -55.416,-55.413 18.329,-0 37.326,37.325 0,18.09 z" /><path
       inkscape:connector-curvature="0"
       id="path212"
       style="fill:#000000;fill-opacity:1;fill-rule:nonzero;stroke:none"
       d="m 1110.3411,1630.8033 -18.923,-18.925 18.328,-0 0.595,0.597 0,18.33 z" /><path
       inkscape:connector-curvature="0"
       id="path216"
       style="fill:#000000;fill-opacity:1;fill-rule:nonzero;stroke:none"
       d="m 926.4832,1667.3171 -55.414,-55.414 18.328,-0 55.414,55.414 -18.328,0 z" /><text
       transform="matrix(1,0,0,-1,1282.2896,1611.0183)"
       style="font-variant:normal;font-weight:bold;font-stretch:normal;font-size:79.19999695px;font-family:'Akzidenz Grotesk Roman';-inkscape-font-specification:AkzidenzGrotesk-Black;writing-mode:lr-tb;fill:#000000;fill-opacity:1;fill-rule:nonzero;stroke:none"
       id="text242"><tspan
         x="0 57.1824 115.8696"
         y="0"
         sodipodi:role="line"
         id="tspan244">BK CITY</tspan></text>
</g></svg>